<?xml version="1.0" standalone="no"?> <!DOCTYPE svg PUBLIC "-//W3C//DTD SVG 1.0//EN" "http://www.w3.org/TR/2001/REC-SVG-20010904/DTD/svg10.dtd" > <svg xmlns="http://www.w3.org/2000/svg" width="100%" height="100%">
<defs >
<font id="NewCicle-Fina" horiz-adv-x="458" ><font-face
    font-family="New Cicle"
    units-per-em="1000"
    panose-1="2 0 0 0 0 0 0 0 0 0"
    ascent="865"
    descent="-200"
    alphabetic="0" />
<missing-glyph horiz-adv-x="257" />
<glyph unicode=" " glyph-name="space" horiz-adv-x="257" />
<glyph unicode="!" glyph-name="exclam" horiz-adv-x="176" d="M103 15Q103 5 97 -2T80 -9Q70 -9 63 -2T56 15Q56 25 63 31T80 38Q91 38 96 32T103 15ZM62 691H98V99H62V691Z" />
<glyph unicode="&quot;" glyph-name="quotedbl" horiz-adv-x="217" d="M36 691H84L91 628L53 548L47 554L36 691ZM111 691H159L166 628L128 548L122 554L111 691Z" />
<glyph unicode="#" glyph-name="numbersign" horiz-adv-x="714" d="M68 265H174L226 408H32L67 452H242L313 644H358L288 452H528L599 644H644L574 452H690L655 408H558L505 265H691L655 221H489L410 0H364L444 221H203L124 0H78L158 221H32L68 265ZM219 265H460L512
408H272L219 265Z" />
<glyph unicode="$" glyph-name="dollar" horiz-adv-x="466" d="M211 652Q184 647 160 634T118 603T90 561T79 513Q79 487 89 463T116 420T158 386T211 366V652ZM253 35Q280 39 304 50T347 79T377 120T388 170Q388 197 378 221T350 265T307 298T253 318V35ZM253
737V694Q308 694 351 673T427 617L393 590Q369 619 333 637T253 655V359Q292 351 325 334T382 293T419 238T433 173Q433 138 419 107T381 52T324 13T253 -7V-66H211V-9Q207 -8 200 -8Q147 -3 105 22T36 85L70 112Q90 81 127 57T211 33V323Q172 330 140 347T85 389T48
444T35 509Q35 545 48 575T84 630T140 670T211 692V737H253Z" />
<glyph unicode="%" glyph-name="percent" horiz-adv-x="773" d="M568 691H618L217 1H169L568 691ZM91 506Q91 481 99 459T122 419T156 392T198 382Q219 382 238 392T271 419T293 458T302 506Q302 532 294 555T271 594T238 620T198 630Q176 630 157 621T123 595T100
555T91 506ZM49 506Q49 540 60 570T92 623T140 659T198 672Q228 672 255 659T301 624T332 571T344 506Q344 472 333 442T302 389T255 353T198 340Q167 340 140 353T93 388T61 441T49 506ZM476 169Q476 143 484 121T506 81T540 55T580 45Q602 45 621 54T655 81T678
120T687 169Q687 195 679 218T656 257T622 283T580 293Q559 293 540 284T507 258T484 218T476 169ZM434 169Q434 203 445 233T477 286T523 321T580 334Q611 334 638 321T685 286T717 234T729 169Q729 135 717 105T685 52T638 16T580 3Q550 3 524 16T477 51T446
104T434 169Z" />
<glyph unicode="&amp;" glyph-name="ampersand" horiz-adv-x="597" d="M248 0Q203 0 165 15T100 56T57 116T41 188Q41 245 79 294T198 381L224 393L206 414Q181 441 166 461T143 498T133 529T130 556Q130 582 141 607T172 651T221 683T286 695Q318 695 345 685T391
656T421 614T432 563Q432 519 409 481T322 403L291 384L450 189L468 215Q480 232 493 253T512 298L546 291Q534 253 513 219T475 160Q487 142 495 130T512 108T529 86T550 58V0Q536 15 528 23T513 41T495 61T467 92L451 110L436 89Q401 41 352 20T248 0ZM391 562Q391
606 361 633T284 661Q263 661 243 653T207 630T181 596T171 556Q172 533 182 513T211 471L260 415L282 427Q309 442 329 460T363 496T384 532T391 562ZM246 364Q159 319 120 275T81 186Q81 158 94 131T130 83T183 49T248 36Q293 35 338 59T415 123L427 138L246
364Z" />
<glyph unicode="&apos;" glyph-name="quotesingle" horiz-adv-x="121" d="M47 686L95 691L102 628L28 550L22 556L54 623L47 686Z" />
<glyph unicode="(" glyph-name="parenleft" horiz-adv-x="260" d="M177 646Q158 623 143 587T117 504T100 403T94 289Q94 224 101 165T120 57T151 -28T190 -85L165 -127Q139 -102 117 -60T80 36T55 154T46 289Q46 356 54 418T78 533T113 627T158 695L177 646Z" />
<glyph unicode=")" glyph-name="parenright" horiz-adv-x="246" d="M90 695Q114 669 134 628T170 533T193 418T202 289Q202 218 193 154T169 36T131 -60T83 -127L58 -85Q79 -65 97 -29T127 57T147 165T154 289Q154 348 148 402T131 503T105 586T71 646L90 695Z" />
<glyph unicode="*" glyph-name="asterisk" horiz-adv-x="471" d="M257 388H215V509L129 424L99 453L185 540H65V581H186L100 667L129 697L215 611V733H257V611L343 697L373 668L287 582H409V540H287L373 453L344 424L257 510V388Z" />
<glyph unicode="+" glyph-name="plus" horiz-adv-x="452" d="M248 121H206V273H55V315H206V466H248V315H400V273H248V121Z" />
<glyph unicode="," glyph-name="comma" horiz-adv-x="173" d="M77 64H125L126 0L43 -69L38 -63L78 0L77 64Z" />
<glyph unicode="-" glyph-name="hyphen" horiz-adv-x="421" d="M41 273V315H386V273H41Z" />
<glyph unicode="." glyph-name="period" horiz-adv-x="145" d="M42 64H106L107 0H43L42 64Z" />
<glyph unicode="/" glyph-name="slash" horiz-adv-x="378" d="M91 0H45L297 691H342L91 0Z" />
<glyph unicode="0" glyph-name="zero" horiz-adv-x="586" d="M84 344Q84 279 101 223T146 124T213 58T296 33Q340 33 378 57T445 124T490 222T507 344Q507 408 491 464T446 563T379 629T296 653Q252 653 214 629T147 563T101 465T84 344ZM42 344Q42 417 62 481T116
592T197 667T296 695Q348 695 394 668T474 593T528 481T548 344Q548 271 529 207T475 95T394 19T296 -9Q244 -9 198 19T117 95T62 207T42 344Z" />
<glyph unicode="1" glyph-name="one" horiz-adv-x="306" d="M39 559L198 691H240L241 0H199L198 637L39 506V559Z" />
<glyph unicode="2" glyph-name="two" horiz-adv-x="475" d="M98 41H447V0H60H42V41L331 366Q352 389 364 418T376 480Q376 516 363 548T325 603T269 639T200 653Q164 653 132 640T77 603L47 633Q77 662 116 678T200 695Q245 695 284 678T353 632T400 564T417 480Q417
438 402 402T360 336L98 41Z" />
<glyph unicode="3" glyph-name="three" horiz-adv-x="431" d="M43 632Q72 663 106 678T189 694Q232 694 270 679T336 639T380 579T397 505Q397 451 366 415T284 355Q309 343 330 324T367 281T391 231T400 178Q400 141 383 109T338 52T271 13T190 -1Q166 -1 140
6T91 25T47 53T13 87L43 115Q53 100 70 87T107 64T148 47T190 41Q224 41 254 51T307 81T343 124T357 178Q357 205 345 232T312 280T263 316T202 332H146V374H171Q181 374 189 374T200 375Q232 377 260 386T309 413T342 453T354 505Q354 536 341 563T306 610T253
641T189 653Q149 653 123 641T73 602L43 632Z" />
<glyph unicode="4" glyph-name="four" horiz-adv-x="473" d="M40 253V293V294H41L269 691L305 670L89 294H322L321 449H362L363 294H434V253H363V0H322V253H40V253Z" />
<glyph unicode="5" glyph-name="five" horiz-adv-x="504" d="M65 352L89 691H442V649H131L107 425Q136 457 179 476T270 495Q316 495 353 476T416 423T455 345T469 249Q469 198 452 153T405 73T335 20T248 0Q194 0 147 26T71 98L100 127Q123 88 161 65T247 42Q284
42 317 58T374 102T413 168T427 249Q427 292 417 329T386 394T337 438T270 454Q218 454 173 426T107 352H65Z" />
<glyph unicode="6" glyph-name="six" horiz-adv-x="506" d="M473 198Q473 154 457 117T412 51T346 8T264 -8Q222 -8 186 7T121 49T77 112T58 191V194Q54 233 54 274T54 354Q54 398 56 438T67 517Q74 554 93 586T139 642T200 680T273 696Q327 696 373 674T452 609L410
583Q387 615 351 634T274 654Q243 654 215 643T164 611T126 564T104 504Q97 467 94 427T91 342Q91 334 91 327T92 312Q118 354 161 379T258 407Q301 407 340 392T408 351T454 288T473 207V198ZM432 205Q431 239 418 268T382 319T329 353T264 366Q229 366 199 352T146
315T112 260T99 195Q99 161 112 132T149 80T202 45T266 32Q300 32 330 45T383 80T419 132T432 196V205Z" />
<glyph unicode="7" glyph-name="seven" horiz-adv-x="443" d="M346 649H41V691H416L95 0H45L346 649Z" />
<glyph unicode="8" glyph-name="eight" horiz-adv-x="459" d="M32 191Q32 252 63 300T144 373Q104 395 79 434T54 522Q54 558 68 589T106 644T162 681T231 695Q269 695 302 682T359 645T397 590T411 522Q411 474 387 435T320 373Q372 348 402 300T433 191Q433
150 418 114T375 50T310 7T231 -9Q190 -9 154 7T91 50T48 113T32 191ZM96 522Q96 495 106 472T135 431T178 403T231 392Q259 392 284 402T328 430T357 471T368 522Q368 549 358 573T328 615T284 643T231 653Q203 653 179 643T136 615T107 573T96 522ZM74 191Q74
159 86 131T120 80T170 46T231 33Q264 33 293 45T344 80T378 130T391 191Q391 224 379 253T345 304T294 338T231 351Q199 351 171 339T121 304T87 253T74 191Z" />
<glyph unicode="9" glyph-name="nine" horiz-adv-x="489" d="M38 488Q38 531 54 568T99 634T165 679T246 696Q289 696 327 680T393 637T437 574T456 495V492Q459 451 459 408T459 324Q459 284 457 246T447 171Q439 132 419 99T370 43T305 6T228 -7Q178 -7 134
16T60 75L101 108Q125 74 160 55T235 36Q268 36 297 47T349 77T387 124T410 182Q415 219 418 258T421 340V374Q393 332 347 308T244 283Q203 283 166 298T101 340T56 403T38 481V488ZM78 483Q80 450 93 421T129 371T181 337T244 324Q280 324 311 337T365 372T401
425T414 491Q414 524 401 553T364 605T310 640T247 653Q211 653 181 639T127 602T91 548T78 483Z" />
<glyph unicode=":" glyph-name="colon" horiz-adv-x="182" d="M60 64H124L125 0H61L60 64ZM60 500H124V436H60V500Z" />
<glyph unicode=";" glyph-name="semicolon" horiz-adv-x="169" d="M60 500H124V436H60V500ZM66 64H114L115 0L32 -69L27 -63L67 0L66 64Z" />
<glyph unicode="&lt;" glyph-name="less" horiz-adv-x="330" d="M271 494L302 465L87 248L302 36L272 5L28 248L271 494Z" />
<glyph unicode="=" glyph-name="equal" horiz-adv-x="440" d="M69 438H404V394H69V438ZM69 244H404V200H69V244Z" />
<glyph unicode="&gt;" glyph-name="greater" horiz-adv-x="336" d="M312 248L68 5L38 36L253 248L38 465L69 494L312 248Z" />
<glyph unicode="?" glyph-name="question" horiz-adv-x="410" d="M188 0L96 321V362H190Q219 363 244 374T288 405T318 451T329 506Q329 537 318 564T288 611T242 642T187 654Q148 654 117 634T66 582L37 611Q61 649 100 672T187 695Q225 695 258 680T316 640T355
580T370 506Q370 469 356 436T318 377T260 336T190 321H137L232 0H188ZM206 -96Q206 -84 214 -77T233 -70Q259 -70 259 -96Q259 -108 252 -116T233 -125Q222 -125 214 -117T206 -96Z" />
<glyph unicode="@" glyph-name="at" horiz-adv-x="799" d="M487 -94Q446 -105 401 -105Q329 -105 266 -78T155 -3T81 107T53 243Q53 316 80 379T155 490T265 564T401 592Q470 592 530 568T635 501T706 401T732 277Q732 232 722 194T700 126Q686 93 669 65Q654
44 634 32T591 19Q571 19 556 27T527 48T505 76T490 105Q482 102 467 98T433 89T397 80T366 75Q349 73 327 78T284 99T251 141T237 209Q237 232 243 261Q252 309 271 340T316 389T371 415T429 422Q447 422 470 421T514 419Q538 417 562 416Q548 355 540 315T527
250T520 214T518 198V193Q516 166 521 143T537 101T562 73T591 63Q614 63 636 91V90Q649 113 660 142Q669 167 677 200T685 275Q685 333 664 383T604 470T514 528T401 549Q338 549 283 525T186 460T120 362T96 243Q96 180 120 125T185 28T282 -37T401 -61Q419 -61
440 -59T485 -48L487 -94ZM458 140Q470 197 481 255T506 370Q495 371 474 371T422 372Q401 372 381 367T345 350T316 315T296 258Q293 245 292 234T291 213Q291 188 297 171T314 144T336 128T359 123Q386 122 414 127T458 140Z" />
<glyph unicode="A" glyph-name="A" horiz-adv-x="596" d="M410 329L303 617L197 329H410ZM286 691H321L577 0H533L425 287H182L76 0H32L286 691Z" />
<glyph unicode="B" glyph-name="B" horiz-adv-x="512" d="M257 0H54L53 691H95H274Q312 690 345 676T403 639T442 586T457 521Q457 470 430 430T358 366Q410 344 440 298T471 196Q471 157 456 122T415 61T352 19T274 2L257 0ZM256 651H95V389H274Q304 390 329
400T374 428T404 470T415 521Q415 546 404 569T374 610T330 638T274 651H256ZM274 42Q306 43 334 56T384 90T417 138T429 196Q429 226 417 252T384 299T335 332T274 347H95V42H256H274Z" />
<glyph unicode="C" glyph-name="C" horiz-adv-x="590" d="M529 568V571Q492 609 445 631T343 653Q287 653 238 629T152 563T94 465T72 345Q72 282 92 226T149 127T234 59T343 34Q397 34 443 55T527 115L555 87Q513 42 459 17T343 -9Q281 -9 225 19T125 95T55 207T29
345Q29 415 53 478T120 590T220 666T343 695Q405 695 460 670T557 599L529 568Z" />
<glyph unicode="D" glyph-name="D" horiz-adv-x="575" d="M79 649V42H294V44Q335 45 371 69T433 135T475 230T491 347Q491 408 476 463T433 559T370 624T292 649H79ZM37 691H79H292Q342 690 386 663T462 590T514 481T533 347Q533 276 515 214T464 105T388 31T294
2L295 0H38L37 691Z" />
<glyph unicode="E" glyph-name="E" horiz-adv-x="485" d="M391 347H86V42H443L444 0H45L44 691H443V651H86V389H391V347Z" />
<glyph unicode="F" glyph-name="F" horiz-adv-x="487" d="M395 347H90L91 0H49L48 691H447V652H90V389H395V347Z" />
<glyph unicode="G" glyph-name="G" horiz-adv-x="604" d="M556 85Q513 40 459 16T341 -9Q276 -9 219 18T118 94T50 206T25 342Q25 415 50 479T118 591T218 667T341 695Q404 695 458 670T556 599L528 570Q491 608 443 630T341 652Q284 652 235 628T148 562T89 464T67
342Q67 278 88 222T147 123T234 56T341 31Q391 31 435 50T514 102V300H323V340H556V88V85Z" />
<glyph unicode="H" glyph-name="H" horiz-adv-x="558" d="M91 347L92 0H50L49 691H91V389H472V691H514L515 0H473L472 347H91Z" />
<glyph unicode="I" glyph-name="I" horiz-adv-x="138" d="M92 0H50L49 691H91L92 0Z" />
<glyph unicode="J" glyph-name="J" horiz-adv-x="305" d="M244 168Q244 132 234 100T206 44T165 5T115 -9Q92 -9 72 2T34 33L61 62Q72 49 86 41T115 33Q133 33 148 43T175 70T194 112T201 166V691H244V168Z" />
<glyph unicode="K" glyph-name="K" horiz-adv-x="583" d="M86 691V315L408 691H465L207 391L542 0H488L180 359L86 250L87 0H45L44 691H86Z" />
<glyph unicode="L" glyph-name="L" horiz-adv-x="453" d="M86 42H423L424 0H45L44 691H86V42Z" />
<glyph unicode="M" glyph-name="M" horiz-adv-x="623" d="M529 691H572L573 0H530L529 610L317 245H291L76 610L77 0H35L34 691H76L305 305L529 691Z" />
<glyph unicode="N" glyph-name="N" horiz-adv-x="537" d="M88 691L446 84V691H488L489 0H447L88 610L89 0H48L47 691H88Z" />
<glyph unicode="O" glyph-name="O" horiz-adv-x="690" d="M530 570Q495 609 447 630T343 652Q287 652 238 628T151 563T93 465T72 345Q72 280 93 224T150 125T236 59T343 34Q401 34 451 58T538 125T596 223T617 345Q617 413 594 470T530 570ZM561 88Q518 41 463
16T343 -9Q280 -9 223 18T123 92T55 205T29 345Q29 418 53 481T121 592T221 667T343 695Q410 695 467 668T567 593T633 482T657 345Q657 267 632 202T561 88Z" />
<glyph unicode="P" glyph-name="P" horiz-adv-x="480" d="M95 346L96 0H54L53 691H252Q292 691 328 678T390 641T431 587T447 521Q447 484 432 452T390 397T328 360T252 346H95ZM95 651V388H252Q283 388 310 398T359 426T392 468T404 521Q404 548 392 571T359
612T311 640T252 651H249H95Z" />
<glyph unicode="Q" glyph-name="Q" horiz-adv-x="665" d="M498 581Q464 617 421 638T327 659Q276 659 230 637T150 575T95 482T75 368Q75 309 94 257T148 166T227 104T325 79Q323 97 311 109T278 121V157Q313 158 336 137T365 81Q409 90 448 116T516 180T562 266T579
368Q579 431 558 486T498 581ZM526 133Q460 60 365 46Q369 14 381 -7T411 -28Q422 -28 429 -22T442 -5L470 -29Q457 -46 443 -56T411 -67Q380 -67 357 -35T327 42Q269 43 217 69T124 138T61 241T37 368Q37 438 60 497T124 601T216 670T327 695Q386 695 439 670T532
601T595 497T619 368Q619 299 594 238T526 133Z" />
<glyph unicode="R" glyph-name="R" horiz-adv-x="474" d="M85 347L86 0H44L43 691H241Q282 691 317 678T379 641T421 587T437 520Q437 484 422 453T380 398T318 361T241 347H142L448 0H394L87 347H85ZM85 652V389H241Q272 389 300 399T349 426T382 468T395 520Q395
547 383 571T349 613T300 641T241 652H239H85Z" />
<glyph unicode="S" glyph-name="S" horiz-adv-x="485" d="M79 112Q103 76 143 55T236 33Q268 33 297 43T349 72T384 115T397 169Q397 198 386 223T354 269T306 303T246 320H243Q200 324 164 340T101 382T59 441T44 510Q44 549 60 583T106 641T174 680T257 694Q314
694 359 674T436 617L402 590Q377 620 340 637T257 655Q224 655 194 644T140 614T102 570T88 514Q88 485 100 459T133 412T184 378T248 361Q290 355 325 339T387 297T427 240T442 173Q442 135 426 102T381 44T315 5T234 -9Q173 -9 124 17T45 85L79 112Z" />
<glyph unicode="T" glyph-name="T" horiz-adv-x="575" d="M310 651L311 0H269L268 651H42V691H310H535V651H310Z" />
<glyph unicode="U" glyph-name="U" horiz-adv-x="598" d="M88 173Q90 144 107 119T153 75T220 45T301 34Q342 34 379 45T444 74T490 118T509 173V691H551V173Q549 136 529 103T475 45T396 6T301 -9Q249 -9 203 5T123 45T67 103T43 173V691H88V173Z" />
<glyph unicode="V" glyph-name="V" horiz-adv-x="639" d="M43 691H87L320 62L553 691H597L343 0H299L43 691Z" />
<glyph unicode="W" glyph-name="W" horiz-adv-x="915" d="M610 0H564L454 295L347 0H302L46 691H90L324 62L432 357L309 691H353L454 416L586 62L818 691H863L610 0Z" />
<glyph unicode="X" glyph-name="X" horiz-adv-x="541" d="M47 691H94L274 389L452 691H501L299 347L502 0H453L268 312L86 0H39L244 354L47 691Z" />
<glyph unicode="Y" glyph-name="Y" horiz-adv-x="681" d="M644 691L361 313L362 0H319L318 313L35 691H92L338 353L588 691H644Z" />
<glyph unicode="Z" glyph-name="Z" horiz-adv-x="548" d="M110 42H478L479 0H64H35L439 649H63V691H478H513L110 42Z" />
<glyph unicode="[" glyph-name="bracketleft" horiz-adv-x="210" d="M149 47Q149 42 166 42L167 0Q158 0 148 3T128 13T112 27T106 47V289Q106 309 94 321T62 334H42V376H62Q81 376 93 389T106 421V646V648V651Q109 669 126 680T166 691V648Q149 648 149 646V409Q144
396 133 386T106 376V334Q121 334 132 326T149 302V47V47Z" />
<glyph unicode="\" glyph-name="backslash" horiz-adv-x="371" d="M44 691H89L343 0H297L44 691Z" />
<glyph unicode="]" glyph-name="bracketright" horiz-adv-x="183" d="M48 302Q51 317 62 325T88 334L90 376Q73 376 62 386T48 409V646Q45 648 28 648V691Q54 691 69 680T88 651L90 648V646V421Q90 402 101 389T131 376H152V334H131Q113 334 102 322T90 289V47Q90
27 70 14T29 0L28 42Q36 42 41 43T48 47V302Z" />
<glyph unicode="^" glyph-name="asciicircum" horiz-adv-x="551" d="M277 691L520 447L489 417L277 632L60 417L31 448L277 691Z" />
<glyph unicode="_" glyph-name="underscore" horiz-adv-x="513" d="M42 0L41 42H461L462 0H42Z" />
<glyph unicode="`" glyph-name="grave" horiz-adv-x="204" d="M31 640H97L163 553H140L31 640Z" />
<glyph unicode="a" glyph-name="a" horiz-adv-x="408" d="M310 41Q287 18 256 5T190 -9Q157 -9 128 3T77 35T42 83T29 141Q29 172 42 200T76 249T127 282T190 294H310V315V325Q310 353 303 378T281 422T248 452T207 465H206Q190 465 179 464T159 461T141 455T118
448L108 487Q122 492 132 495T153 501T176 505T206 506H207Q237 505 262 492T307 455T338 402T352 336V325Q351 236 351 166Q351 136 351 107T350 55T350 16T350 0H310V41ZM310 251Q266 251 242 251T207 252T194 252T190 252Q166 252 144 243T106 219T81 184T71
141Q71 118 80 99T106 65T144 42T190 33Q215 33 236 41T274 64T300 99T310 142V251Z" />
<glyph unicode="b" glyph-name="b" horiz-adv-x="523" d="M100 71Q120 60 144 52Q164 44 191 39T251 32Q291 33 327 50T390 97T433 165T449 249Q449 292 433 331T390 399T327 446T251 464Q222 464 195 458T147 444Q122 435 100 425V71ZM101 0H61V94V691H103V467Q129
486 167 496T251 506Q301 506 344 486T420 430T472 348T491 249Q491 196 472 149T421 67T345 12T251 -10Q204 -8 165 2T100 30L101 0Z" />
<glyph unicode="c" glyph-name="c" horiz-adv-x="478" d="M404 397Q378 427 342 445T262 464Q221 464 185 447T123 401T81 333T65 248Q65 204 80 165T122 96T185 50T262 33Q303 33 339 50T402 97L432 68Q398 33 355 12T262 -9Q213 -9 170 11T94 67T42 148T23 248Q23
301 42 348T93 430T169 485T262 506Q314 506 358 485T434 428L404 397Z" />
<glyph unicode="d" glyph-name="d" horiz-adv-x="503" d="M410 425Q389 435 365 444Q345 451 318 457T261 463Q219 462 183 445T119 399T77 332T61 250Q61 206 76 167T119 98T182 50T261 31H263Q295 31 322 37T369 51Q392 60 410 71V425ZM410 29Q384 12 345 2T261
-10Q211 -9 167 11T91 67T39 149T20 250Q20 303 39 349T90 429T167 484T261 505H263H261Q306 505 344 496T410 466V691H452V93V0H410V29Z" />
<glyph unicode="e" glyph-name="e" horiz-adv-x="456" d="M241 33Q262 33 283 36T324 46T361 60T389 76L406 37Q382 19 344 8T266 -8H265Q259 -9 253 -9T239 -9Q197 -9 161 9T96 60T50 136T29 230V249Q29 302 45 349T88 431T151 486T228 507Q270 507 306 490T368
440T410 364T425 265V241H72Q74 199 88 162T125 96T178 50T241 33ZM385 282Q382 322 369 355T334 413T286 450T228 464Q198 464 171 451T123 413T89 356T72 282H385Z" />
<glyph unicode="f" glyph-name="f" horiz-adv-x="328" d="M293 652Q286 654 276 654T257 654Q235 653 216 642T183 612T160 568T152 515V489H284V446H152L153 0H114Q113 84 113 166V446H37V489H111Q112 489 112 496Q112 498 112 501T111 508V515V527Q113 561 125
591T156 645T202 681T257 695Q270 695 281 695T305 693L293 652Z" />
<glyph unicode="g" glyph-name="g" horiz-adv-x="551" d="M193 115Q202 115 211 116T234 118Q276 118 312 106T376 72T419 22T435 -40Q435 -73 420 -102T377 -152T313 -187T234 -200Q193 -200 157 -187T93 -153T50 -102T34 -40Q34 5 62 41T138 98Q127 117 127
145Q127 162 133 176T148 199Q113 224 94 258T74 333Q74 369 89 400T132 455T195 492T273 506Q295 506 313 503T348 495H521L480 453H417Q443 430 457 400T472 333Q472 297 457 266T414 212T351 176T273 162Q248 162 229 168T191 174Q180 174 169 169T158 147Q158
126 169 121T193 115ZM74 -40Q74 -64 87 -86T122 -124T173 -150T234 -160Q268 -160 297 -151T349 -125T383 -86T396 -40Q396 -16 384 5T349 43T298 70T234 80Q202 80 173 70T122 44T87 6T74 -40ZM115 333Q115 306 127 282T161 241T211 213T273 202Q307 202 336
212T386 240T420 282T433 333Q433 361 421 385T387 428T336 456T273 466Q240 466 212 456T162 428T128 386T115 333Z" />
<glyph unicode="h" glyph-name="h" horiz-adv-x="455" d="M88 693V429Q112 466 147 486T227 507Q262 507 292 493T345 454T381 396T395 325L398 3H356V325Q355 355 344 380T315 425T273 455T221 466Q197 466 175 457T134 430T104 390T88 340L89 0H47L46 693H88Z" />
<glyph unicode="i" glyph-name="i" horiz-adv-x="202" d="M85 500H126L127 0H86L85 500ZM77 650Q77 661 85 669T106 677Q117 677 126 669T135 650Q135 639 126 631T106 623Q94 623 86 631T77 650Z" />
<glyph unicode="j" glyph-name="j" horiz-adv-x="354" d="M196 645Q196 657 203 664T224 672Q234 672 242 665T250 645Q250 634 242 626T224 618Q211 618 204 626T196 645ZM56 -155Q65 -156 73 -157Q80 -158 87 -158T100 -158Q122 -157 141 -146T174 -116T196
-73T204 -21V501H246V-31Q244 -65 232 -95T201 -147T156 -183T102 -198H100Q87 -198 75 -197T52 -194L56 -155Z" />
<glyph unicode="k" glyph-name="k" horiz-adv-x="440" d="M103 334L301 500H365L206 368L417 0H368L174 338L103 279L104 0H61V691H103V334Z" />
<glyph unicode="l" glyph-name="l" horiz-adv-x="162" d="M65 750H107L108 0H66L65 750Z" />
<glyph unicode="m" glyph-name="m" horiz-adv-x="739" d="M83 453V427Q107 464 142 484T220 505Q273 505 314 474T376 394Q386 424 403 445T441 480T485 500T529 507Q564 507 594 493T647 455T683 397T697 325L699 2H657V325Q656 354 646 379T617 424T576 454T525
465Q500 465 478 455T437 428T407 389T391 340V2H349V323Q348 353 338 378T309 422T267 452T215 463Q190 463 168 454T128 427T99 388T83 338L84 0H42L41 451V500H83V453Z" />
<glyph unicode="n" glyph-name="n" horiz-adv-x="433" d="M81 429Q105 467 141 487T220 508Q255 508 285 494T338 455T374 397T389 325L392 0H350L349 325Q348 355 339 380T313 425T273 455T223 466Q198 466 174 457T131 430T98 390T81 340L82 0H40L39 500H81V429Z" />
<glyph unicode="o" glyph-name="o" horiz-adv-x="513" d="M64 247Q64 203 79 164T120 95T182 49T257 32Q296 32 330 49T390 95T431 163T446 247Q446 292 431 331T391 400T331 447T257 464Q217 464 182 447T121 401T79 332T64 247ZM22 247Q22 301 40 348T91 430T166
485T257 506Q305 506 347 486T420 430T470 348T489 247Q489 194 471 148T421 66T347 11T257 -10Q209 -10 166 10T91 66T41 147T22 247Z" />
<glyph unicode="p" glyph-name="p" horiz-adv-x="506" d="M83 70Q104 60 129 52Q150 45 176 39T232 32Q273 33 309 50T372 97T414 166T430 250Q430 294 415 333T372 401T309 446T232 463Q200 463 173 457T126 442Q102 433 83 422V70ZM83 466Q109 483 147 494T232
506Q282 505 325 485T401 430T453 349T472 250Q472 196 453 149T402 67T326 12T232 -9Q188 -9 149 2T84 30V-195H43V500H83V466Z" />
<glyph unicode="q" glyph-name="q" horiz-adv-x="515" d="M414 500H455V-195H414V33Q385 13 347 3T263 -8H266H263Q214 -7 171 13T94 68T42 149T23 249Q23 302 42 348T94 430T170 485T263 506Q309 506 348 496T414 469V500ZM414 425Q394 436 370 445Q350 453 323
459T266 465H263Q222 465 186 448T123 402T80 333T64 249Q64 204 80 166T123 98T186 52T263 34Q292 34 319 39T368 52Q393 60 414 71V425Z" />
<glyph unicode="r" glyph-name="r" horiz-adv-x="286" d="M261 457Q231 467 203 460T150 433T109 389T87 338L88 0H46L45 500H87V427Q111 465 146 485T225 506Q230 506 245 505T266 501L261 457Z" />
<glyph unicode="s" glyph-name="s" horiz-adv-x="417" d="M340 418Q317 440 284 451T214 463Q163 463 129 439T94 377Q94 359 103 342T128 311T168 286T218 272Q252 267 281 253T331 220T363 176T375 124Q375 94 362 70T327 29T275 2T212 -8Q165 -8 122 9T52 57L84
82Q105 61 138 47T209 33Q261 33 297 58T333 124Q333 143 324 160T299 193T260 218T210 233Q175 238 146 252T96 285T63 329T51 379Q51 407 64 430T101 470T154 496T218 505Q265 505 306 488T374 443L340 418Z" />
<glyph unicode="t" glyph-name="t" horiz-adv-x="340" d="M167 691V493H302V450H167L168 0H128Q127 86 127 168V450H51V493H125V691H167Z" />
<glyph unicode="u" glyph-name="u" horiz-adv-x="450" d="M355 70Q332 35 296 13T217 -9Q182 -9 152 5T100 45T64 103T50 175L47 500H88L90 175Q91 146 101 121T128 76T168 45T218 34Q243 34 266 44T308 71T339 111T355 160V500H397V48V0H356L355 70Z" />
<glyph unicode="v" glyph-name="v" horiz-adv-x="500" d="M24 500H69L248 58L426 500H474L271 0H226L24 500Z" />
<glyph unicode="w" glyph-name="w" horiz-adv-x="705" d="M472 0L426 3L348 198L266 0L220 3L19 500H64L243 58L323 256L225 500H273L449 58L627 500H675L472 0Z" />
<glyph unicode="x" glyph-name="x" horiz-adv-x="444" d="M37 500H90L218 294L349 500H401L246 251L402 0H352L215 216L83 0H33L190 259L37 500Z" />
<glyph unicode="y" glyph-name="y" horiz-adv-x="479" d="M34 -152Q36 -154 38 -155T42 -158H44Q49 -158 55 -158T67 -159Q102 -159 135 -136T187 -67L228 35L34 506H79L248 84L414 506H459L267 35L223 -82L221 -91Q197 -144 155 -172T65 -200Q49 -200 29 -195L34 -152Z" />
<glyph unicode="z" glyph-name="z" horiz-adv-x="452" d="M45 43L357 457H48V500H412V457L100 43H412L413 0H46L45 43Z" />
<glyph unicode="{" glyph-name="braceleft" horiz-adv-x="223" d="M149 47Q149 42 166 42L167 0Q158 0 148 3T128 13T112 27T106 47V289Q106 309 94 321T62 334H42V376H62Q81 376 93 389T106 421V646V648V651Q109 669 126 680T166 691V648Q149 648 149 646V409Q144
396 133 386T106 376V334Q121 334 132 326T149 302V47V47Z" />
<glyph unicode="|" glyph-name="bar" horiz-adv-x="131" d="M56 717H82V1H56V717Z" />
<glyph unicode="}" glyph-name="braceright" horiz-adv-x="188" d="M48 302Q51 317 62 325T88 334L90 376Q73 376 62 386T48 409V646Q45 648 28 648V691Q54 691 69 680T88 651L90 648V646V421Q90 402 101 389T131 376H152V334H131Q113 334 102 322T90 289V47Q90
27 70 14T29 0L28 42Q36 42 41 43T48 47V302Z" />
<glyph unicode="~" glyph-name="asciitilde" horiz-adv-x="347" d="M272 276Q272 276 271 277Q256 298 232 303T187 296H186Q160 278 128 279T68 299L77 350Q93 330 116 325T160 332H161Q188 350 221 349T281 328L272 276Z" />
<glyph unicode="&#xa0;" glyph-name="space" horiz-adv-x="257" />
<glyph unicode="&#xa1;" glyph-name="exclamdown" horiz-adv-x="160" d="M57 671Q57 681 63 688T80 695Q90 695 97 688T104 671Q104 661 97 655T80 648Q69 648 64 654T57 671ZM99 0H63L62 588H98L99 0Z" />
<glyph unicode="&#xa2;" glyph-name="cent" horiz-adv-x="478" d="M240 572H287V504Q331 499 368 479T434 428L404 397Q382 423 352 440T287 462V34Q320 39 349 55T402 97L432 68Q402 37 366 18T287 -7V-75H240V-7Q195 -3 156 18T87 74T40 153T23 248Q23 298 40
342T86 421T155 477T240 504V572ZM65 248Q65 207 78 170T115 105T171 57T240 34V462Q203 457 171 439T116 393T79 327T65 248Z" />
<glyph unicode="&#xa3;" glyph-name="sterling" horiz-adv-x="556" d="M187 301V42H524L525 0H146L145 301H25V343H145V691H187V343H370V301H187Z" />
<glyph unicode="&#xa4;" glyph-name="currency" horiz-adv-x="833" />
<glyph unicode="&#xa5;" glyph-name="yen" horiz-adv-x="681" d="M172 192H318V230H172V274H318V313L35 691H92L338 353L588 691H644L361 313V274H507V230H361V192H507V148H361L362 0H319L318 148H172V192Z" />
<glyph unicode="&#xa6;" glyph-name="brokenbar" horiz-adv-x="131" d="M56 410V717H82V410H56ZM82 344V1H56V344H82Z" />
<glyph unicode="&#xa7;" glyph-name="section" horiz-adv-x="381" d="M292 486Q252 506 210 506Q187 506 169 499Q180 478 199 457T248 422Q300 396 330 354T360 263Q360 237 349 214T320 173Q321 167 321 161T322 150Q322 120 311 96T280 56T235 32T184 23Q137
23 89 47L107 84Q127 74 145 70T183 66Q223 66 252 87T281 150Q267 142 252 140T222 138Q198 138 174 143T127 161L145 200Q186 181 223 181Q251 181 272 191Q261 215 241 236T192 272Q166 284 145 302T108 342T85 386T77 432Q77 486 119 519Q116 532 116 545Q116
573 127 595T156 633T199 657T252 665Q298 665 347 642L329 601Q309 612 288 616T249 621Q211 621 184 602T157 544V541Q182 550 212 550Q260 550 309 527L292 486ZM310 230Q315 238 316 247T318 265Q318 299 295 333T229 388Q197 402 174 425T136 474Q128 466
124 453T120 428Q120 396 144 363T210 308Q242 293 266 269T303 219Q306 222 310 230ZM216 322Q178 341 156 370T134 428Q134 432 135 436T137 445Q168 399 224 373L223 374Q261 355 282 325T304 265Q304 260 304 257T302 249Q271 295 216 323V322ZM328 535Q297
549 268 557T212 565Q192 565 174 562Q180 583 201 594T249 606Q284 606 336 581L366 650Q334 666 306 673T252 680Q222 680 195 671T147 645T114 602T102 545Q102 540 102 536T103 525Q63 490 63 432Q63 408 71 383T96 334T135 291T186 257V258Q229 236 252 200Q245
198 238 197T223 196Q206 196 184 202T138 220L108 154Q138 137 167 130T222 122Q233 122 242 122T262 126Q254 103 233 92T183 81Q147 81 101 104L70 41Q134 7 184 7Q213 7 240 16T289 44T323 89T336 150Q336 154 336 158T335 167Q351 186 362 211T374 263Q374
314 341 361T254 436Q234 447 219 461T192 490Q197 491 210 491Q248 491 298 466L328 535ZM306 445Q281 457 262 464T226 473Q239 461 260 450Q289 436 312 415T353 370T379 318T388 263Q388 234 378 209T350 162V150Q350 112 336 83T299 33T245 3T184 -8Q157 -8
123 2T50 33L95 124Q124 110 145 104T183 97Q210 97 227 107H222Q196 107 163 116T90 148L132 239Q159 226 182 219T222 212Q214 220 204 228T180 243Q151 258 127 279T85 326T59 378T49 432Q49 490 87 531V545Q87 581 100 609T136 656T189 686T252 696Q278 696
311 687T386 657L342 560Q282 590 249 590Q238 590 228 588T209 581H212Q238 581 272 571T347 543L306 445ZM221 336Q239 328 254 317T283 294Q275 312 259 329T217 359L218 358Q199 366 184 377T154 400Q162 383 179 366T222 336H221Z" />
<glyph unicode="&#xa8;" glyph-name="dieresis" horiz-adv-x="263" d="M38 650Q38 661 46 669T67 677Q78 677 87 669T96 650Q96 639 87 631T67 623Q55 623 47 631T38 650ZM172 650Q172 661 180 669T201 677Q212 677 221 669T230 650Q230 639 221 631T201 623Q189
623 181 631T172 650Z" />
<glyph unicode="&#xa9;" glyph-name="copyright" horiz-adv-x="833" />
<glyph unicode="&#xaa;" glyph-name="ordfeminine" horiz-adv-x="179" d="M124 320V326Q110 316 87 316Q61 316 43 333T25 375Q25 398 43 414T89 431H124V437Q124 454 115 467T92 481Q79 481 69 480T47 475L42 500Q63 506 92 506Q115 506 130 487T148 437Q147
428 147 419V381Q147 362 150 344T158 320H124ZM87 407Q72 407 61 397T50 375Q50 362 61 352T87 342Q101 342 112 352T124 375V407H87Z" />
<glyph unicode="&#xab;" glyph-name="guillemotleft" horiz-adv-x="532" d="M463 501L491 469L258 273L452 42L420 14L199 278L463 501ZM293 501L321 469L88 273L282 42L250 14L29 278L293 501Z" />
<glyph unicode="&#xac;" glyph-name="logicalnot" horiz-adv-x="662" d="M622 163H580V345H41V387H622V163Z" />
<glyph unicode="&#xae;" glyph-name="registered" horiz-adv-x="833" />
<glyph unicode="&#xb0;" glyph-name="degree" horiz-adv-x="250" d="M54 596Q54 570 76 549T127 527Q139 527 151 533T172 548T187 570T193 596Q193 610 187 623T172 647T151 664T127 670Q98 670 76 648T54 596ZM26 596Q26 639 54 667T127 695Q166 695 194 667T222
596Q222 576 215 559T194 529T164 509T127 501Q105 501 87 508T55 529T34 559T26 596Z" />
<glyph unicode="&#xb1;" glyph-name="plusminus" horiz-adv-x="452" d="M248 308H206V460H55V502H206V653H248V502H400V460H248V308ZM54 154V196H399V154H54Z" />
<glyph unicode="&#xb2;" glyph-name="twosuperior" horiz-adv-x="280" d="M242 347V317H33V347L188 520Q199 532 205 548T212 579Q212 596 205 611T185 638T157 657T124 664Q107 664 90 657T57 633L33 658Q53 675 75 685T124 695Q149 695 170 686T208 661T233
624T242 579Q242 556 232 534T211 497L78 347H242Z" />
<glyph unicode="&#xb3;" glyph-name="threesuperior" horiz-adv-x="265" d="M45 374Q57 360 75 351T113 342Q128 342 143 348T169 364T188 387T195 416Q195 431 189 444T172 467T148 483T120 492H66V523H120Q135 524 148 530T172 545T189 567T196 593Q196 606
189 618T171 640T145 655T114 661Q95 661 76 653T41 628L18 652Q54 691 114 691Q138 691 158 684T195 663T220 632T229 593Q229 533 173 507Q195 492 210 468T226 416Q226 394 217 375T193 342T157 320T113 312Q83 312 59 323T18 354L37 374H45Z" />
<glyph unicode="&#xb4;" glyph-name="acute" horiz-adv-x="209" d="M66 553H43L109 640H175L66 553Z" />
<glyph unicode="&#xb5;" glyph-name="mu" horiz-adv-x="496" d="M126 -195H85V500H127V139Q127 130 139 113T170 78T214 47T264 34Q291 34 314 45T354 75T381 120T392 175L394 500H435L432 175Q431 137 418 104T383 45T330 6T265 -9Q222 -9 186 13T127 70L126 -195Z" />
<glyph unicode="&#xb6;" glyph-name="paragraph" horiz-adv-x="382" d="M263 0V690H303V0H263ZM178 655Q156 655 137 645T102 619T79 579T70 531Q70 505 78 483T102 444T136 417T178 407V655ZM193 0V362Q159 362 129 375T77 410T42 463T29 527Q29 561 42 591T77
643T129 678T193 691H233V0H193Z" />
<glyph unicode="&#xb7;" glyph-name="middot" horiz-adv-x="225" d="M62 314Q62 333 77 348T115 364Q136 364 152 349T169 314Q169 295 153 280T115 265Q93 265 78 280T62 314Z" />
<glyph unicode="&#xb9;" glyph-name="onesuperior" horiz-adv-x="263" d="M36 587L162 691H204V391H162V637L66 558L36 587Z" />
<glyph unicode="&#xba;" glyph-name="ordmasculine" horiz-adv-x="232" d="M51 406Q51 380 71 359T117 337Q128 337 138 343T157 358T171 380T177 406Q177 421 172 434T158 458T139 475T117 481Q104 481 92 475T71 459T57 435T51 406ZM26 406Q26 450 52 478T117
506Q135 506 150 499T177 478T196 446T203 406Q203 386 196 369T178 339T151 319T117 311Q78 311 52 339T26 406Z" />
<glyph unicode="&#xbb;" glyph-name="guillemotright" horiz-adv-x="524" d="M321 278L100 14L68 42L262 273L29 469L57 501L321 278ZM491 278L270 14L238 42L432 273L199 469L227 501L491 278Z" />
<glyph unicode="&#xbc;" glyph-name="onequarter" horiz-adv-x="382" d="M291 335L182 148H285V225H306V148H355V127H306L307 0H286L285 127H158V148L273 345L291 335ZM34 454L97 506H118V213H97V479L49 440L34 454Z" />
<glyph unicode="&#xbd;" glyph-name="onehalf" horiz-adv-x="355" d="M22 455L85 507H106V213H85V480L37 441L22 455ZM164 20H325L326 0H137L136 20L282 183Q292 194 298 209T304 240Q304 277 279 301T216 326Q181 326 155 302L140 317Q155 331 174 339T216 347Q238
347 258 339T293 316T316 282T325 240Q325 218 317 200T295 168L164 20Z" />
<glyph unicode="&#xbe;" glyph-name="threequarters" d="M47 204Q58 191 75 183T113 175Q131 175 146 181T173 197T191 221T198 251Q198 272 188 287T160 313T120 326T74 326V347H120Q153 349 176 369T199 416Q199 446 175 466T115 487Q72 487 47 459L32 474Q63
507 115 507Q137 507 156 500T189 481T212 452T221 416Q221 390 205 369T162 336Q188 324 203 302T219 251Q219 231 211 213T188 182T155 162T113 154Q88 154 67 164T32 190L47 204ZM234 129V150L349 347L367 337L259 150H361V227H382V150H432V129H382V2H361V129H234Z"
/>
<glyph unicode="&#xbf;" glyph-name="questiondown" horiz-adv-x="432" d="M231 691L325 368V325H226Q197 324 172 313T129 281T99 235T88 179Q88 149 99 123T129 76T175 45T231 33Q271 33 302 53T354 105L384 74Q359 37 320 14T231 -10Q193 -10 160 5T102 46T62
106T47 179Q47 217 61 251T100 311T157 352T226 368H282L188 691H231ZM211 786Q211 774 204 766T185 758Q172 758 165 766T157 786Q157 799 164 807T185 815Q196 815 203 807T211 786Z" />
<glyph unicode="&#xc0;" glyph-name="Agrave" horiz-adv-x="596" d="M410 329L303 617L197 329H410ZM286 691H321L577 0H533L425 287H182L76 0H32L286 691ZM190 831H256L322 744H299L190 831Z" />
<glyph unicode="&#xc1;" glyph-name="Aacute" horiz-adv-x="596" d="M410 329L303 617L197 329H410ZM286 691H321L577 0H533L425 287H182L76 0H32L286 691ZM312 744H289L355 831H421L312 744Z" />
<glyph unicode="&#xc2;" glyph-name="Acircumflex" horiz-adv-x="596" d="M410 329L303 617L197 329H410ZM286 691H321L577 0H533L425 287H182L76 0H32L286 691Z" />
<glyph unicode="&#xc3;" glyph-name="Atilde" horiz-adv-x="596" d="M389 753Q389 753 388 754Q373 775 349 780T304 773H303Q277 755 245 756T185 776L194 827Q210 807 233 802T277 809H278Q305 827 338 826T398 805L389 753ZM410 329L303 617L197 329H410ZM286
691H321L577 0H533L425 287H182L76 0H32L286 691Z" />
<glyph unicode="&#xc4;" glyph-name="Adieresis" horiz-adv-x="596" d="M410 329L303 617L197 329H410ZM286 691H321L577 0H533L425 287H182L76 0H32L286 691ZM200 763Q200 774 208 782T229 790Q240 790 249 782T258 763Q258 752 249 744T229 736Q217 736 209
744T200 763ZM334 763Q334 774 342 782T363 790Q374 790 383 782T392 763Q392 752 383 744T363 736Q351 736 343 744T334 763Z" />
<glyph unicode="&#xc5;" glyph-name="Aring" horiz-adv-x="596" d="M410 329L303 617L197 329H410ZM286 691H321L577 0H533L425 287H182L76 0H32L286 691Z" />
<glyph unicode="&#xc6;" glyph-name="AE" horiz-adv-x="1081" d="M541 651H312L197 329H532L541 651ZM549 691H931V651H574V389H879V347H574V42H931L932 0H533L532 287H182L76 0H32L286 691H549Z" />
<glyph unicode="&#xc7;" glyph-name="Ccedilla" horiz-adv-x="634" d="M554 570L553 571Q516 610 469 632T368 655Q311 655 261 630T174 562T116 463T94 342Q94 280 115 224T173 124T260 56T368 31Q421 31 468 53T551 113L581 85Q536 37 480 14T357 -9L348 -32Q352
-32 360 -36T378 -47T393 -65T400 -88Q400 -102 390 -116T351 -147L318 -122Q322 -122 330 -121T346 -115T360 -104T367 -86Q367 -77 361 -71T347 -62T331 -57T316 -55H308L309 -4Q255 8 208 39T127 115T73 219T53 342Q53 417 78 481T145 593T245 668T368 695Q430
695 485 670T582 600Q582 599 582 599T583 598L554 570Z" />
<glyph unicode="&#xc8;" glyph-name="Egrave" horiz-adv-x="485" d="M391 347H86V42H443L444 0H45L44 691H443V651H86V389H391V347ZM121 831H187L253 744H230L121 831Z" />
<glyph unicode="&#xc9;" glyph-name="Eacute" horiz-adv-x="485" d="M391 347H86V42H443L444 0H45L44 691H443V651H86V389H391V347ZM229 744H206L272 831H338L229 744Z" />
<glyph unicode="&#xca;" glyph-name="Ecircumflex" horiz-adv-x="485" d="M391 347H86V42H443L444 0H45L44 691H443V651H86V389H391V347ZM242 865L350 758L324 733L242 816L159 733L135 759L242 865Z" />
<glyph unicode="&#xcb;" glyph-name="Edieresis" horiz-adv-x="485" d="M391 347H86V42H443L444 0H45L44 691H443V651H86V389H391V347ZM144 764Q144 775 152 783T173 791Q184 791 193 783T202 764Q202 753 193 745T173 737Q161 737 153 745T144 764ZM278 764Q278
775 286 783T307 791Q318 791 327 783T336 764Q336 753 327 745T307 737Q295 737 287 745T278 764Z" />
<glyph unicode="&#xcc;" glyph-name="Igrave" horiz-adv-x="131" d="M100 0H58L57 691H99L100 0ZM-24 831H42L108 744H85L-24 831Z" />
<glyph unicode="&#xcd;" glyph-name="Iacute" horiz-adv-x="154" d="M92 0H50L49 691H91L92 0ZM83 744H60L126 831H192L83 744Z" />
<glyph unicode="&#xce;" glyph-name="Icircumflex" horiz-adv-x="138" d="M92 0H50L49 691H91L92 0Z" />
<glyph unicode="&#xcf;" glyph-name="Idieresis" horiz-adv-x="138" d="M92 0H50L49 691H91L92 0ZM230 763Q230 774 238 782T259 790Q270 790 279 782T288 763Q288 752 279 744T259 736Q247 736 239 744T230 763ZM364 763Q364 774 372 782T393 790Q404 790 413
782T422 763Q422 752 413 744T393 736Q381 736 373 744T364 763Z" />
<glyph unicode="&#xd0;" glyph-name="Eth" horiz-adv-x="653" d="M43 274V316H111V691H366Q416 690 460 663T536 590T588 481T607 347Q607 276 589 214T538 105T462 31T368 2L369 0H112L111 274H43ZM153 649V316H327V274H153V42H368V44Q409 45 445 69T507 135T549
230T565 347Q565 408 550 463T507 559T444 624T366 649H153Z" />
<glyph unicode="&#xd1;" glyph-name="Ntilde" horiz-adv-x="537" d="M88 691L446 84V691H488L489 0H447L88 610L89 0H48L47 691H88ZM370 731Q370 731 369 732Q354 753 330 758T285 751H284Q258 733 226 734T166 754L175 805Q191 785 214 780T258 787H259Q286 805
319 804T379 783L370 731Z" />
<glyph unicode="&#xd2;" glyph-name="Ograve" horiz-adv-x="690" d="M530 570Q495 609 447 630T343 652Q287 652 238 628T151 563T93 465T72 345Q72 280 93 224T150 125T236 59T343 34Q401 34 451 58T538 125T596 223T617 345Q617 413 594 470T530 570ZM561 88Q518
41 463 16T343 -9Q280 -9 223 18T123 92T55 205T29 345Q29 418 53 481T121 592T221 667T343 695Q410 695 467 668T567 593T633 482T657 345Q657 267 632 202T561 88ZM212 831H278L344 744H321L212 831Z" />
<glyph unicode="&#xd3;" glyph-name="Oacute" horiz-adv-x="690" d="M530 570Q495 609 447 630T343 652Q287 652 238 628T151 563T93 465T72 345Q72 280 93 224T150 125T236 59T343 34Q401 34 451 58T538 125T596 223T617 345Q617 413 594 470T530 570ZM561 88Q518
41 463 16T343 -9Q280 -9 223 18T123 92T55 205T29 345Q29 418 53 481T121 592T221 667T343 695Q410 695 467 668T567 593T633 482T657 345Q657 267 632 202T561 88ZM367 744H344L410 831H476L367 744Z" />
<glyph unicode="&#xd4;" glyph-name="Ocircumflex" horiz-adv-x="690" d="M530 570Q495 609 447 630T343 652Q287 652 238 628T151 563T93 465T72 345Q72 280 93 224T150 125T236 59T343 34Q401 34 451 58T538 125T596 223T617 345Q617 413 594 470T530 570ZM561
88Q518 41 463 16T343 -9Q280 -9 223 18T123 92T55 205T29 345Q29 418 53 481T121 592T221 667T343 695Q410 695 467 668T567 593T633 482T657 345Q657 267 632 202T561 88ZM344 865L452 758L426 733L344 816L261 733L237 759L344 865Z" />
<glyph unicode="&#xd5;" glyph-name="Otilde" horiz-adv-x="690" d="M530 570Q495 609 447 630T343 652Q287 652 238 628T151 563T93 465T72 345Q72 280 93 224T150 125T236 59T343 34Q401 34 451 58T538 125T596 223T617 345Q617 413 594 470T530 570ZM561 88Q518
41 463 16T343 -9Q280 -9 223 18T123 92T55 205T29 345Q29 418 53 481T121 592T221 667T343 695Q410 695 467 668T567 593T633 482T657 345Q657 267 632 202T561 88ZM446 732Q446 732 445 733Q430 754 406 759T361 752H360Q334 734 302 735T242 755L251 806Q267
786 290 781T334 788H335Q362 806 395 805T455 784L446 732Z" />
<glyph unicode="&#xd6;" glyph-name="Odieresis" horiz-adv-x="690" d="M530 570Q495 609 447 630T343 652Q287 652 238 628T151 563T93 465T72 345Q72 280 93 224T150 125T236 59T343 34Q401 34 451 58T538 125T596 223T617 345Q617 413 594 470T530 570ZM561
88Q518 41 463 16T343 -9Q280 -9 223 18T123 92T55 205T29 345Q29 418 53 481T121 592T221 667T343 695Q410 695 467 668T567 593T633 482T657 345Q657 267 632 202T561 88ZM247 764Q247 775 255 783T276 791Q287 791 296 783T305 764Q305 753 296 745T276 737Q264
737 256 745T247 764ZM381 764Q381 775 389 783T410 791Q421 791 430 783T439 764Q439 753 430 745T410 737Q398 737 390 745T381 764Z" />
<glyph unicode="&#xd7;" glyph-name="multiply" horiz-adv-x="367" d="M70 178L40 207L147 315L41 421L70 451L177 344L284 451L314 422L207 315L314 207L285 178L177 285L70 178Z" />
<glyph unicode="&#xd8;" glyph-name="Oslash" horiz-adv-x="690" d="M561 88Q518 41 463 16T343 -9Q317 -9 292 -4T244 9L242 0H196L205 27Q167 47 135 79T80 153T43 243T29 345Q29 418 53 481T121 592T221 667T343 695Q394 695 443 678L448 691H493L482 661Q564
615 610 533T657 345Q657 267 632 202T561 88ZM530 570Q500 601 467 620L258 49Q298 34 343 34Q401 34 451 58T538 125T596 223T617 345Q617 413 594 470T530 570ZM343 652Q287 652 238 628T151 563T93 465T72 345Q72 299 83 257T113 179T160 114T219 66L428 637Q387
652 343 652Z" />
<glyph unicode="&#xd9;" glyph-name="Ugrave" horiz-adv-x="598" d="M88 173Q90 144 107 119T153 75T220 45T301 34Q342 34 379 45T444 74T490 118T509 173V691H551V173Q549 136 529 103T475 45T396 6T301 -9Q249 -9 203 5T123 45T67 103T43 173V691H88V173ZM184
831H250L316 744H293L184 831Z" />
<glyph unicode="&#xda;" glyph-name="Uacute" horiz-adv-x="598" d="M88 173Q90 144 107 119T153 75T220 45T301 34Q342 34 379 45T444 74T490 118T509 173V691H551V173Q549 136 529 103T475 45T396 6T301 -9Q249 -9 203 5T123 45T67 103T43 173V691H88V173ZM308
744H285L351 831H417L308 744Z" />
<glyph unicode="&#xdb;" glyph-name="Ucircumflex" horiz-adv-x="598" d="M88 173Q90 144 107 119T153 75T220 45T301 34Q342 34 379 45T444 74T490 118T509 173V691H551V173Q549 136 529 103T475 45T396 6T301 -9Q249 -9 203 5T123 45T67 103T43 173V691H88V173ZM298
865L406 758L380 733L298 816L215 733L191 759L298 865Z" />
<glyph unicode="&#xdc;" glyph-name="Udieresis" horiz-adv-x="598" d="M88 173Q90 144 107 119T153 75T220 45T301 34Q342 34 379 45T444 74T490 118T509 173V691H551V173Q549 136 529 103T475 45T396 6T301 -9Q249 -9 203 5T123 45T67 103T43 173V691H88V173ZM201
763Q201 774 209 782T230 790Q241 790 250 782T259 763Q259 752 250 744T230 736Q218 736 210 744T201 763ZM335 763Q335 774 343 782T364 790Q375 790 384 782T393 763Q393 752 384 744T364 736Q352 736 344 744T335 763Z" />
<glyph unicode="&#xdd;" glyph-name="Yacute" horiz-adv-x="681" d="M644 691L361 313L362 0H319L318 313L35 691H92L338 353L588 691H644ZM358 744H335L401 831H467L358 744Z" />
<glyph unicode="&#xde;" glyph-name="Thorn" horiz-adv-x="535" d="M104 469Q131 486 169 497T252 508Q302 507 346 487T422 432T474 351T493 251Q493 197 474 150T423 67T346 12T252 -9Q206 -9 170 3T103 30V-196H62V692H104V469ZM104 95Q103 83 114 72T145 53T193
39T252 33Q292 34 328 51T391 98T434 166T450 250Q450 293 434 332T391 400T328 447T252 465Q223 465 197 461T151 450T117 432T101 411L104 95Z" />
<glyph unicode="&#xdf;" glyph-name="germandbls" horiz-adv-x="520" d="M256 651H95V389H274Q304 390 329 400T374 428T404 470T415 521Q415 546 404 569T374 610T330 638T274 651H256ZM95 -173H53V691H95H274Q312 690 345 676T403 639T442 586T457 521Q457 470
430 430T358 366Q410 344 440 298T471 196Q471 157 456 122T415 61T352 19T274 2H189L149 42H274Q306 43 334 56T384 90T417 138T429 196Q429 226 417 252T382 299T327 332T256 347H95V-173Z" />
<glyph unicode="&#xe0;" glyph-name="agrave" horiz-adv-x="406" d="M331 41Q308 18 277 5T211 -9Q178 -9 149 3T98 35T63 83T50 141Q50 172 63 200T97 249T148 282T211 294H331V315V325Q331 353 324 378T302 422T269 452T228 465H227Q211 465 200 464T180 461T162
455T139 448L129 487Q143 492 153 495T174 501T197 505T227 506H228Q258 505 283 492T328 455T359 402T373 336V325Q372 236 372 166Q372 136 372 107T371 55T371 16T371 0H331V41ZM331 251Q287 251 263 251T228 252T215 252T211 252Q187 252 165 243T127 219T102
184T92 141Q92 118 101 99T127 65T165 42T211 33Q236 33 257 41T295 64T321 99T331 142V251ZM144 640H210L276 553H253L144 640Z" />
<glyph unicode="&#xe1;" glyph-name="aacute" horiz-adv-x="406" d="M331 41Q308 18 277 5T211 -9Q178 -9 149 3T98 35T63 83T50 141Q50 172 63 200T97 249T148 282T211 294H331V315V325Q331 353 324 378T302 422T269 452T228 465H227Q211 465 200 464T180 461T162
455T139 448L129 487Q143 492 153 495T174 501T197 505T227 506H228Q258 505 283 492T328 455T359 402T373 336V325Q372 236 372 166Q372 136 372 107T371 55T371 16T371 0H331V41ZM331 251Q287 251 263 251T228 252T215 252T211 252Q187 252 165 243T127 219T102
184T92 141Q92 118 101 99T127 65T165 42T211 33Q236 33 257 41T295 64T321 99T331 142V251ZM235 553H212L278 640H344L235 553Z" />
<glyph unicode="&#xe2;" glyph-name="acircumflex" horiz-adv-x="406" d="M331 41Q308 18 277 5T211 -9Q178 -9 149 3T98 35T63 83T50 141Q50 172 63 200T97 249T148 282T211 294H331V315V325Q331 353 324 378T302 422T269 452T228 465H227Q211 465 200 464T180
461T162 455T139 448L129 487Q143 492 153 495T174 501T197 505T227 506H228Q258 505 283 492T328 455T359 402T373 336V325Q372 236 372 166Q372 136 372 107T371 55T371 16T371 0H331V41ZM331 251Q287 251 263 251T228 252T215 252T211 252Q187 252 165 243T127
219T102 184T92 141Q92 118 101 99T127 65T165 42T211 33Q236 33 257 41T295 64T321 99T331 142V251ZM239 674L347 567L321 542L239 625L156 542L132 568L239 674Z" />
<glyph unicode="&#xe3;" glyph-name="atilde" horiz-adv-x="406" d="M332 572Q332 572 331 573Q316 591 292 595T247 589H246Q220 574 188 575T128 592L137 635Q153 618 176 614T220 620H221Q248 635 281 634T341 616L332 572ZM331 41Q308 18 277 5T211 -9Q178
-9 149 3T98 35T63 83T50 141Q50 172 63 200T97 249T148 282T211 294H331V315V325Q331 353 324 378T302 422T269 452T228 465H227Q211 465 200 464T180 461T162 455T139 448L129 487Q143 492 153 495T174 501T197 505T227 506H228Q258 505 283 492T328 455T359
402T373 336V325Q372 236 372 166Q372 136 372 107T371 55T371 16T371 0H331V41ZM331 251Q287 251 263 251T228 252T215 252T211 252Q187 252 165 243T127 219T102 184T92 141Q92 118 101 99T127 65T165 42T211 33Q236 33 257 41T295 64T321 99T331 142V251Z" />
<glyph unicode="&#xe4;" glyph-name="adieresis" horiz-adv-x="406" d="M154 634Q154 645 162 653T183 661Q194 661 203 653T212 634Q212 623 203 615T183 607Q171 607 163 615T154 634ZM288 634Q288 645 296 653T317 661Q328 661 337 653T346 634Q346 623 337
615T317 607Q305 607 297 615T288 634ZM331 41Q308 18 277 5T211 -9Q178 -9 149 3T98 35T63 83T50 141Q50 172 63 200T97 249T148 282T211 294H331V315V325Q331 353 324 378T302 422T269 452T228 465H227Q211 465 200 464T180 461T162 455T139 448L129 487Q143
492 153 495T174 501T197 505T227 506H228Q258 505 283 492T328 455T359 402T373 336V325Q372 236 372 166Q372 136 372 107T371 55T371 16T371 0H331V41ZM331 251Q287 251 263 251T228 252T215 252T211 252Q187 252 165 243T127 219T102 184T92 141Q92 118 101
99T127 65T165 42T211 33Q236 33 257 41T295 64T321 99T331 142V251Z" />
<glyph unicode="&#xe6;" glyph-name="ae" horiz-adv-x="743" d="M322 40Q299 17 268 4T201 -10Q168 -10 139 2T88 34T53 82T40 141Q40 172 53 200T87 248T138 281T201 293H316Q318 310 322 325Q322 354 313 379T290 422T257 452T216 464H215Q150 464 99 449L89
489Q148 506 215 506H216Q261 504 297 475T350 399Q378 448 420 477T512 507Q554 507 590 488T652 434T694 354T709 254V230H362V184Q370 151 385 124T422 76T468 44T523 32Q539 32 556 35T591 44T625 56T653 69L670 32Q644 18 614 8T550 -8H549Q543 -9 537 -9T523
-9Q475 -9 434 15T363 82Q364 48 365 25T370 0H323L322 40ZM669 271Q666 311 653 346T618 408T570 449T512 464Q482 464 455 450T408 409T375 348T363 271H669ZM313 252H201Q176 252 155 243T117 219T92 184T83 141Q83 118 92 99T117 65T154 42T201 33Q226 33 248
41T286 64T312 98T322 141V172Q315 199 313 230V252Z" />
<glyph unicode="&#xe7;" glyph-name="ccedilla" horiz-adv-x="493" d="M281 -36Q285 -36 293 -40T311 -51T326 -69T333 -92Q333 -106 322 -121T283 -153L251 -127Q258 -126 266 -124T281 -117T294 -108T299 -94Q299 -83 294 -76T280 -66T263 -61T248 -59Q246 -59
244 -59T239 -60L241 -6Q198 1 161 23T97 80T54 157T38 249Q38 302 56 348T107 430T184 485T278 506Q329 506 373 485T450 427L421 398Q393 428 357 446T278 464Q237 464 201 447T138 401T96 333T80 249Q80 204 95 165T138 96T201 50T278 33Q319 33 355 49T417
95L447 66Q417 34 377 14T289 -9L281 -36Z" />
<glyph unicode="&#xe8;" glyph-name="egrave" horiz-adv-x="456" d="M241 33Q262 33 283 36T324 46T361 60T389 76L406 37Q382 19 344 8T266 -8H265Q259 -9 253 -9T239 -9Q197 -9 161 9T96 60T50 136T29 230V249Q29 302 45 349T88 431T151 486T228 507Q270 507
306 490T368 440T410 364T425 265V241H72Q74 199 88 162T125 96T178 50T241 33ZM385 282Q382 322 369 355T334 413T286 450T228 464Q198 464 171 451T123 413T89 356T72 282H385ZM143 640H209L275 553H252L143 640Z" />
<glyph unicode="&#xe9;" glyph-name="eacute" horiz-adv-x="456" d="M241 33Q262 33 283 36T324 46T361 60T389 76L406 37Q382 19 344 8T266 -8H265Q259 -9 253 -9T239 -9Q197 -9 161 9T96 60T50 136T29 230V249Q29 302 45 349T88 431T151 486T228 507Q270 507
306 490T368 440T410 364T425 265V241H72Q74 199 88 162T125 96T178 50T241 33ZM385 282Q382 322 369 355T334 413T286 450T228 464Q198 464 171 451T123 413T89 356T72 282H385ZM245 553H222L288 640H354L245 553Z" />
<glyph unicode="&#xea;" glyph-name="ecircumflex" horiz-adv-x="456" d="M241 33Q262 33 283 36T324 46T361 60T389 76L406 37Q382 19 344 8T266 -8H265Q259 -9 253 -9T239 -9Q197 -9 161 9T96 60T50 136T29 230V249Q29 302 45 349T88 431T151 486T228 507Q270
507 306 490T368 440T410 364T425 265V241H72Q74 199 88 162T125 96T178 50T241 33ZM385 282Q382 322 369 355T334 413T286 450T228 464Q198 464 171 451T123 413T89 356T72 282H385ZM226 674L334 567L308 542L226 625L143 542L119 568L226 674Z" />
<glyph unicode="&#xeb;" glyph-name="edieresis" horiz-adv-x="456" d="M241 33Q262 33 283 36T324 46T361 60T389 76L406 37Q382 19 344 8T266 -8H265Q259 -9 253 -9T239 -9Q197 -9 161 9T96 60T50 136T29 230V249Q29 302 45 349T88 431T151 486T228 507Q270
507 306 490T368 440T410 364T425 265V241H72Q74 199 88 162T125 96T178 50T241 33ZM385 282Q382 322 369 355T334 413T286 450T228 464Q198 464 171 451T123 413T89 356T72 282H385ZM131 650Q131 661 139 669T160 677Q171 677 180 669T189 650Q189 639 180 631T160
623Q148 623 140 631T131 650ZM265 650Q265 661 273 669T294 677Q305 677 314 669T323 650Q323 639 314 631T294 623Q282 623 274 631T265 650Z" />
<glyph unicode="&#xec;" glyph-name="igrave" horiz-adv-x="211" d="M95 500H136L137 0H96L95 500ZM15 640H81L147 553H124L15 640Z" />
<glyph unicode="&#xed;" glyph-name="iacute" horiz-adv-x="211" d="M65 500H106L107 0H66L65 500ZM74 553H51L117 640H183L74 553Z" />
<glyph unicode="&#xee;" glyph-name="icircumflex" horiz-adv-x="177" d="M65 500H106L107 0H66L65 500ZM87 674L195 567L169 542L87 625L4 542L-20 568L87 674Z" />
<glyph unicode="&#xef;" glyph-name="idieresis" horiz-adv-x="177" d="M65 500H106L107 0H66L65 500ZM11 650Q11 661 19 669T40 677Q51 677 60 669T69 650Q69 639 60 631T40 623Q28 623 20 631T11 650ZM105 650Q105 661 113 669T134 677Q145 677 154 669T163
650Q163 639 154 631T134 623Q122 623 114 631T105 650Z" />
<glyph unicode="&#xf0;" glyph-name="eth" horiz-adv-x="489" d="M38 488Q38 531 54 568T99 634T165 679T246 696Q289 696 327 680T393 637T437 574T456 495V492Q459 451 459 408T459 324Q459 284 457 246T447 171Q439 132 419 99T370 43T305 6T228 -7Q178 -7
134 16T60 75L101 108Q125 74 160 55T235 36Q268 36 297 47T349 77T387 124T410 182Q415 219 418 258T421 340V374Q393 332 347 308T244 283Q203 283 166 298T101 340T56 403T38 481V488ZM78 483Q80 450 93 421T129 371T181 337T244 324Q280 324 311 337T365 372T401
425T414 491Q414 524 401 553T364 605T310 640T247 653Q211 653 181 639T127 602T91 548T78 483Z" />
<glyph unicode="&#xf1;" glyph-name="ntilde" horiz-adv-x="433" d="M316 566Q316 566 315 567Q300 585 276 589T231 583H230Q204 568 172 569T112 586L121 629Q137 612 160 608T204 614H205Q232 629 265 628T325 610L316 566ZM81 429Q105 467 141 487T220 508Q255
508 285 494T338 455T374 397T389 325L392 0H350L349 325Q348 355 339 380T313 425T273 455T223 466Q198 466 174 457T131 430T98 390T81 340L82 0H40L39 500H81V429Z" />
<glyph unicode="&#xf2;" glyph-name="ograve" horiz-adv-x="527" d="M64 247Q64 203 79 164T120 95T182 49T257 32Q296 32 330 49T390 95T431 163T446 247Q446 292 431 331T391 400T331 447T257 464Q217 464 182 447T121 401T79 332T64 247ZM22 247Q22 301 40
348T91 430T166 485T257 506Q305 506 347 486T420 430T470 348T489 247Q489 194 471 148T421 66T347 11T257 -10Q209 -10 166 10T91 66T41 147T22 247ZM156 640H222L288 553H265L156 640Z" />
<glyph unicode="&#xf3;" glyph-name="oacute" horiz-adv-x="527" d="M64 247Q64 203 79 164T120 95T182 49T257 32Q296 32 330 49T390 95T431 163T446 247Q446 292 431 331T391 400T331 447T257 464Q217 464 182 447T121 401T79 332T64 247ZM22 247Q22 301 40
348T91 430T166 485T257 506Q305 506 347 486T420 430T470 348T489 247Q489 194 471 148T421 66T347 11T257 -10Q209 -10 166 10T91 66T41 147T22 247ZM272 553H249L315 640H381L272 553Z" />
<glyph unicode="&#xf4;" glyph-name="ocircumflex" horiz-adv-x="513" d="M64 247Q64 203 79 164T120 95T182 49T257 32Q296 32 330 49T390 95T431 163T446 247Q446 292 431 331T391 400T331 447T257 464Q217 464 182 447T121 401T79 332T64 247ZM22 247Q22 301
40 348T91 430T166 485T257 506Q305 506 347 486T420 430T470 348T489 247Q489 194 471 148T421 66T347 11T257 -10Q209 -10 166 10T91 66T41 147T22 247ZM255 674L363 567L337 542L255 625L172 542L148 568L255 674Z" />
<glyph unicode="&#xf5;" glyph-name="otilde" horiz-adv-x="513" d="M64 247Q64 203 79 164T120 95T182 49T257 32Q296 32 330 49T390 95T431 163T446 247Q446 292 431 331T391 400T331 447T257 464Q217 464 182 447T121 401T79 332T64 247ZM22 247Q22 301 40
348T91 430T166 485T257 506Q305 506 347 486T420 430T470 348T489 247Q489 194 471 148T421 66T347 11T257 -10Q209 -10 166 10T91 66T41 147T22 247ZM365 573Q365 573 364 574Q349 595 325 600T280 593H279Q253 575 221 576T161 596L170 647Q186 627 209 622T253
629H254Q281 647 314 646T374 625L365 573Z" />
<glyph unicode="&#xf6;" glyph-name="odieresis" horiz-adv-x="527" d="M64 247Q64 203 79 164T120 95T182 49T257 32Q296 32 330 49T390 95T431 163T446 247Q446 292 431 331T391 400T331 447T257 464Q217 464 182 447T121 401T79 332T64 247ZM22 247Q22 301
40 348T91 430T166 485T257 506Q305 506 347 486T420 430T470 348T489 247Q489 194 471 148T421 66T347 11T257 -10Q209 -10 166 10T91 66T41 147T22 247ZM172 650Q172 661 180 669T201 677Q212 677 221 669T230 650Q230 639 221 631T201 623Q189 623 181 631T172
650ZM306 650Q306 661 314 669T335 677Q346 677 355 669T364 650Q364 639 355 631T335 623Q323 623 315 631T306 650Z" />
<glyph unicode="&#xf7;" glyph-name="divide" horiz-adv-x="425" d="M177 204H241V140H177V204ZM177 451H241V387H177V451ZM35 273V315H380V273H35Z" />
<glyph unicode="&#xf8;" glyph-name="oslash" horiz-adv-x="513" d="M22 247Q22 301 40 348T91 430T166 485T257 506Q306 506 348 485T423 427L391 399Q365 429 331 446T257 464Q217 464 182 447T121 401T79 332T64 247Q64 218 70 192T88 142L56 114Q22 174 22
247ZM446 247Q446 281 438 311T413 368L446 396Q466 364 477 327T489 247Q489 194 471 148T421 66T347 11T257 -10Q203 -10 157 14T78 81L109 108Q135 73 173 53T257 32Q296 32 330 49T390 95T431 163T446 247Z" />
<glyph unicode="&#xf9;" glyph-name="ugrave" horiz-adv-x="450" d="M355 70Q332 35 296 13T217 -9Q182 -9 152 5T100 45T64 103T50 175L47 500H88L90 175Q91 146 101 121T128 76T168 45T218 34Q243 34 266 44T308 71T339 111T355 160V500H397V48V0H356L355 70ZM119
640H185L251 553H228L119 640Z" />
<glyph unicode="&#xfa;" glyph-name="uacute" horiz-adv-x="450" d="M355 70Q332 35 296 13T217 -9Q182 -9 152 5T100 45T64 103T50 175L47 500H88L90 175Q91 146 101 121T128 76T168 45T218 34Q243 34 266 44T308 71T339 111T355 160V500H397V48V0H356L355 70ZM219
553H196L262 640H328L219 553Z" />
<glyph unicode="&#xfb;" glyph-name="ucircumflex" horiz-adv-x="450" d="M355 70Q332 35 296 13T217 -9Q182 -9 152 5T100 45T64 103T50 175L47 500H88L90 175Q91 146 101 121T128 76T168 45T218 34Q243 34 266 44T308 71T339 111T355 160V500H397V48V0H356L355
70ZM223 674L331 567L305 542L223 625L140 542L116 568L223 674Z" />
<glyph unicode="&#xfc;" glyph-name="udieresis" horiz-adv-x="450" d="M355 70Q332 35 296 13T217 -9Q182 -9 152 5T100 45T64 103T50 175L47 500H88L90 175Q91 146 101 121T128 76T168 45T218 34Q243 34 266 44T308 71T339 111T355 160V500H397V48V0H356L355
70ZM128 650Q128 661 136 669T157 677Q168 677 177 669T186 650Q186 639 177 631T157 623Q145 623 137 631T128 650ZM262 650Q262 661 270 669T291 677Q302 677 311 669T320 650Q320 639 311 631T291 623Q279 623 271 631T262 650Z" />
<glyph unicode="&#xfd;" glyph-name="yacute" horiz-adv-x="535" d="M58 -152Q60 -154 62 -155T66 -158H68Q73 -158 79 -158T91 -159Q126 -159 159 -136T211 -67L252 35L58 506H103L272 84L438 506H483L291 35L247 -82L245 -91Q221 -144 179 -172T89 -200Q73 -200
53 -195L58 -152ZM282 553H259L325 640H391L282 553Z" />
<glyph unicode="&#xfe;" glyph-name="thorn" horiz-adv-x="517" d="M104 469Q131 486 169 497T252 508Q302 507 346 487T422 432T474 351T493 251Q493 197 474 150T423 67T346 12T252 -9Q206 -9 170 3T103 30V-196H62V692H104V469ZM104 95Q103 83 114 72T145 53T193
39T252 33Q292 34 328 51T391 98T434 166T450 250Q450 293 434 332T391 400T328 447T252 465Q223 465 197 461T151 450T117 432T101 411L104 95Z" />
<glyph unicode="&#xff;" glyph-name="ydieresis" horiz-adv-x="535" d="M58 -152Q60 -154 62 -155T66 -158H68Q73 -158 79 -158T91 -159Q126 -159 159 -136T211 -67L252 35L58 506H103L272 84L438 506H483L291 35L247 -82L245 -91Q221 -144 179 -172T89 -200Q73
-200 53 -195L58 -152ZM181 650Q181 661 189 669T210 677Q221 677 230 669T239 650Q239 639 230 631T210 623Q198 623 190 631T181 650ZM315 650Q315 661 323 669T344 677Q355 677 364 669T373 650Q373 639 364 631T344 623Q332 623 324 631T315 650Z" />
<glyph unicode="&#x131;" glyph-name="dotlessi" horiz-adv-x="343" d="M35 51V93H217V632H259V51H35Z" />
<glyph unicode="&#x141;" glyph-name="Lslash" horiz-adv-x="570" d="M297 691H342H297ZM91 0H45L167 334V691H209V450L297 691H342L209 326V42H546L547 0H168L167 209L91 0Z" />
<glyph unicode="&#x142;" glyph-name="lslash" horiz-adv-x="380" d="M171 691H213V435L311 604H359L213 349L214 0H172L171 275L79 115H27L171 363V691Z" />
<glyph unicode="&#x152;" glyph-name="OE" horiz-adv-x="1056" d="M561 88Q518 41 463 16T343 -9Q280 -9 223 18T123 92T55 205T29 345Q29 418 53 481T121 592T221 667T343 695Q432 695 503 649T616 522V691H1015V651H658V389H963V347H658V42H1015L1016 0H617L616
166Q593 121 561 88ZM530 570Q495 609 447 630T343 652Q287 652 238 628T151 563T93 465T72 345Q72 280 93 224T150 125T236 59T343 34Q398 34 446 56T530 116T588 205T616 317V372Q611 432 589 482T530 570Z" />
<glyph unicode="&#x153;" glyph-name="oe" horiz-adv-x="880" d="M664 32Q680 32 699 36T738 47T776 60T806 74L823 37Q797 23 761 11T691 -8H690Q684 -9 678 -9T664 -9Q631 -9 602 2T547 34T503 83T471 147Q457 112 436 84T387 34T326 2T257 -10Q209 -10 166
10T91 66T41 147T22 247Q22 301 40 348T91 430T166 485T257 506Q293 506 325 495T385 463T434 413T470 350Q493 419 542 463T653 507Q695 507 731 488T793 434T835 354T850 254V230H497Q499 188 513 152T549 90T601 48T664 32ZM64 247Q64 203 79 164T120 95T182
49T257 32Q296 32 330 49T390 95T431 163T446 247Q446 292 431 331T391 400T331 447T257 464Q217 464 182 447T121 401T79 332T64 247ZM810 271Q807 311 794 346T759 408T711 449T653 464Q623 464 596 449T548 408T514 347T497 271H810Z" />
<glyph unicode="&#x160;" glyph-name="Scaron" horiz-adv-x="485" d="M79 112Q103 76 143 55T236 33Q268 33 297 43T349 72T384 115T397 169Q397 198 386 223T354 269T306 303T246 320H243Q200 324 164 340T101 382T59 441T44 510Q44 549 60 583T106 641T174 680T257
694Q314 694 359 674T436 617L402 590Q377 620 340 637T257 655Q224 655 194 644T140 614T102 570T88 514Q88 485 100 459T133 412T184 378T248 361Q290 355 325 339T387 297T427 240T442 173Q442 135 426 102T381 44T315 5T234 -9Q173 -9 124 17T45 85L79 112ZM241
733L133 840L159 865L241 782L324 865L348 839L241 733Z" />
<glyph unicode="&#x161;" glyph-name="scaron" horiz-adv-x="417" d="M340 418Q317 440 284 451T214 463Q163 463 129 439T94 377Q94 359 103 342T128 311T168 286T218 272Q252 267 281 253T331 220T363 176T375 124Q375 94 362 70T327 29T275 2T212 -8Q165 -8
122 9T52 57L84 82Q105 61 138 47T209 33Q261 33 297 58T333 124Q333 143 324 160T299 193T260 218T210 233Q175 238 146 252T96 285T63 329T51 379Q51 407 64 430T101 470T154 496T218 505Q265 505 306 488T374 443L340 418ZM208 542L100 649L126 674L208 591L291
674L315 648L208 542Z" />
<glyph unicode="&#x178;" glyph-name="Ydieresis" horiz-adv-x="681" d="M644 691L361 313L362 0H319L318 313L35 691H92L338 353L588 691H644ZM242 753Q242 764 250 772T271 780Q282 780 291 772T300 753Q300 742 291 734T271 726Q259 726 251 734T242 753ZM376
753Q376 764 384 772T405 780Q416 780 425 772T434 753Q434 742 425 734T405 726Q393 726 385 734T376 753Z" />
<glyph unicode="&#x17d;" glyph-name="Zcaron" horiz-adv-x="548" d="M110 42H478L479 0H64H35L439 649H63V691H478H513L110 42ZM272 733L164 840L190 865L272 782L355 865L379 839L272 733Z" />
<glyph unicode="&#x17e;" glyph-name="zcaron" horiz-adv-x="452" d="M45 43L357 457H48V500H412V457L100 43H412L413 0H46L45 43ZM225 542L117 649L143 674L225 591L308 674L332 648L225 542Z" />
<glyph unicode="&#x192;" glyph-name="florin" horiz-adv-x="337" d="M293 652Q286 654 276 654T257 654Q235 653 216 642T183 612T160 568T152 515V489H284V446H152L153 0H114Q113 84 113 166V446H37V489H111V527Q113 561 125 591T156 645T202 681T257 695Q270
695 281 695T305 693L293 652Z" />
<glyph unicode="&#x2c6;" glyph-name="circumflex" horiz-adv-x="268" d="M138 674L246 567L220 542L138 625L55 542L31 568L138 674Z" />
<glyph unicode="&#x2c7;" glyph-name="caron" horiz-adv-x="276" d="M139 542L31 649L57 674L139 591L222 674L246 648L139 542Z" />
<glyph unicode="&#x2d8;" glyph-name="breve" horiz-adv-x="833" />
<glyph unicode="&#x2d9;" glyph-name="dotaccent" horiz-adv-x="148" d="M42 654H106V590H42V654Z" />
<glyph unicode="&#x2da;" glyph-name="ring" horiz-adv-x="833" />
<glyph unicode="&#x2db;" glyph-name="ogonek" horiz-adv-x="833" />
<glyph unicode="&#x2dc;" glyph-name="tilde" horiz-adv-x="334" d="M268 573Q268 573 267 574Q252 595 228 600T183 593H182Q156 575 124 576T64 596L73 647Q89 627 112 622T156 629H157Q184 647 217 646T277 625L268 573Z" />
<glyph unicode="&#x2dd;" glyph-name="hungarumlaut" horiz-adv-x="418" d="M66 553H43L109 640H175L66 553ZM275 553H252L318 640H384L275 553Z" />
<glyph unicode="&#x2013;" glyph-name="endash" horiz-adv-x="416" d="M41 273V315H386V273H41Z" />
<glyph unicode="&#x2014;" glyph-name="emdash" horiz-adv-x="532" d="M41 273V315H500V273H41Z" />
<glyph unicode="&#x2018;" glyph-name="quoteleft" horiz-adv-x="150" d="M104 555L61 535L34 593L79 690L87 686L78 612L104 555Z" />
<glyph unicode="&#x2019;" glyph-name="quoteright" horiz-adv-x="159" d="M59 686L107 691L114 628L40 550L34 556L66 623L59 686Z" />
<glyph unicode="&#x201a;" glyph-name="quotesinglbase" horiz-adv-x="172" d="M77 64H125L126 0L43 -69L38 -63L78 0L77 64Z" />
<glyph unicode="&#x201c;" glyph-name="quotedblleft" horiz-adv-x="218" d="M155 623L187 556L181 550L107 628L114 691L162 686L155 623ZM82 623L114 556L108 550L34 628L41 691L89 686L82 623Z" />
<glyph unicode="&#x201d;" glyph-name="quotedblright" horiz-adv-x="237" d="M59 686L107 691L114 628L40 550L34 556L66 623L59 686ZM132 686L180 691L187 628L113 550L107 556L139 623L132 686Z" />
<glyph unicode="&#x201e;" glyph-name="quotedblbase" horiz-adv-x="231" d="M64 66H113V3L33 -67L28 -61L66 3L64 66ZM140 65H187V1L106 -69L102 -62L140 2V65Z" />
<glyph unicode="&#x2020;" glyph-name="dagger" horiz-adv-x="486" d="M43 559V585H230V717H256V585H453V559H256V1H230V559H43Z" />
<glyph unicode="&#x2021;" glyph-name="daggerdbl" horiz-adv-x="408" d="M32 464H367V420H32V464ZM32 297H367V253H32V297ZM177 0L176 691H220L221 0H177Z" />
<glyph unicode="&#x2022;" glyph-name="bullet" horiz-adv-x="209" d="M44 384Q44 409 62 428T106 447Q130 447 149 428T169 384Q169 373 164 362T150 343T130 329T106 324Q81 324 63 342T44 384Z" />
<glyph unicode="&#x2026;" glyph-name="ellipsis" horiz-adv-x="435" d="M42 64H106L107 0H43L42 64ZM187 64H251L252 0H188L187 64ZM332 64H396L397 0H333L332 64Z" />
<glyph unicode="&#x2030;" glyph-name="perthousand" horiz-adv-x="1040" d="M524 691H574L173 1H125L524 691ZM744 182Q744 156 752 134T774 94T808 68T848 58Q870 58 889 67T923 94T946 133T955 182Q955 208 947 231T924 270T890 296T848 306Q827 306 808 297T775
271T752 231T744 182ZM702 182Q702 216 713 246T745 299T791 334T848 347Q879 347 906 334T953 299T985 247T997 182Q997 148 985 118T953 65T906 29T848 16Q818 16 792 29T745 64T714 117T702 182ZM91 506Q91 481 99 459T122 419T156 392T198 382Q219 382 238
392T271 419T293 458T302 506Q302 532 294 555T271 594T238 620T198 630Q176 630 157 621T123 595T100 555T91 506ZM49 506Q49 540 60 570T92 623T140 659T198 672Q228 672 255 659T301 624T332 571T344 506Q344 472 333 442T302 389T255 353T198 340Q167 340 140
353T93 388T61 441T49 506ZM415 182Q415 156 423 134T445 94T479 68T519 58Q541 58 560 67T594 94T617 133T626 182Q626 208 618 231T595 270T561 296T519 306Q498 306 479 297T446 271T423 231T415 182ZM373 182Q373 216 384 246T416 299T462 334T519 347Q550
347 577 334T624 299T656 247T668 182Q668 148 656 118T624 65T577 29T519 16Q489 16 463 29T416 64T385 117T373 182Z" />
<glyph unicode="&#x2039;" glyph-name="guilsinglleft" horiz-adv-x="352" d="M290 494L321 465L106 248L321 36L291 5L47 248L290 494Z" />
<glyph unicode="&#x203a;" glyph-name="guilsinglright" horiz-adv-x="343" d="M321 248L77 5L47 36L262 248L47 465L78 494L321 248Z" />
<glyph unicode="&#x2044;" glyph-name="fraction" horiz-adv-x="382" d="M91 0H45L297 691H342L91 0Z" />
<glyph unicode="&#x20ac;" glyph-name="Euro" horiz-adv-x="745" d="M711 102Q664 52 602 22T467 -9Q408 -9 356 11T261 68T190 153T147 261H40V304H140Q140 313 139 323T137 342Q137 358 138 372T142 399H40V441H151Q166 496 197 542T269 623T361 676T467 695Q540
695 602 665T711 584L680 553Q638 599 586 625T467 652Q420 652 377 637T298 593T235 526T194 441H537V399H185Q180 371 180 342Q180 333 181 323T182 304H537V261H192Q204 212 230 171T292 99T373 51T467 34Q533 34 585 61T680 136L711 102Z" />
<glyph unicode="&#x2122;" glyph-name="trademark" horiz-adv-x="417" d="M122 480H90V654H30V683H180V654H122V480ZM361 683V480H331V618Q320 600 308 581T288 546H272L230 618V480H199V683H225L281 588Q295 614 308 637T336 683H361Z" />
<glyph unicode="&#x2212;" glyph-name="minus" horiz-adv-x="417" d="M41 273V315H386V273H41Z" />
<glyph unicode="&#xfb01;" glyph-name="fi" horiz-adv-x="486" d="M293 652Q286 654 276 654T257 654Q235 653 216 642T183 612T160 568T152 515V489H283V446H152L153 0H114L113 446H37V489H111Q112 489 112 496Q112 498 112 501T111 508V515V527Q113 561 125
591T156 645T202 681T257 695Q270 695 281 695T305 693L293 652ZM398 500H439L440 0H399L398 500ZM390 650Q390 661 398 669T419 677Q430 677 439 669T448 650Q448 639 439 631T419 623Q407 623 399 631T390 650Z" />
<glyph unicode="&#xfb02;" glyph-name="fl" horiz-adv-x="490" d="M262 695H305L306 0H263L262 446H152L153 0H114L113 446H37V489H111Q112 489 112 496Q112 498 112 501T111 508V515V527Q113 562 125 592T156 645T202 681T257 695H262ZM152 489H262V654H257Q235
653 216 642T183 612T160 568T152 515V489Z" />
</font>
</defs>
</svg>
